Coordinates
version=1
nRows=24
nColumns=24
inDegrees=yes

Units are S.I. units (second, meters, Newtons, ...)
If the header above contains a line with 'inDegrees', this indicates whether rotational values are in degrees (yes) or radians (no).

endheader
time	pelvis_tilt	pelvis_list	pelvis_rotation	pelvis_tx	pelvis_ty	pelvis_tz	hip_flexion_r	hip_adduction_r	hip_rotation_r	knee_angle_r	ankle_angle_r	subtalar_angle_r	mtp_angle_r	hip_flexion_l	hip_adduction_l	hip_rotation_l	knee_angle_l	ankle_angle_l	subtalar_angle_l	mtp_angle_l	lumbar_extension	lumbar_bending	lumbar_rotation
      4.41666700	     25.09493265	      6.17941262	     10.17316066	     28.87991232	      0.88517619	      0.14146843	    -30.65391286	      4.26032341	    -20.05372228	   -106.82932709	    -29.32438201	     26.84412034	      0.00000000	      3.41148078	     17.29692367	      8.17081429	    -27.18823170	      6.88993756	     18.20676643	      0.00000000	    -43.82841609	     -1.99335152	     10.82776717
      4.43333300	     27.27847691	      5.69943020	     10.27002626	     29.01820544	      0.87835964	      0.14221951	    -26.87379271	      3.87696572	    -22.09848513	   -117.84913254	    -23.17245354	     23.92593709	      0.00000000	     -6.12953609	     14.94598160	      5.29697138	    -24.11759010	      9.54124155	     14.26840729	      0.00000000	    -44.68626928	     -1.97350299	      9.86678640
      4.45000000	     28.86206569	      4.78025780	     10.35173410	     29.15599110	      0.87096922	      0.14265087	    -21.77717525	      3.84663029	    -23.29682530	   -126.29634852	    -16.51169906	     21.88826619	      0.00000000	    -14.48813293	     12.07449424	      1.27521104	    -23.77373934	     15.06843158	     13.45849942	      0.00000000	    -45.05269281	     -1.40641634	      8.41097839
      4.46666700	     29.63086560	      4.05076268	     11.40468893	     29.29272727	      0.86449586	      0.14344654	    -15.12116734	      4.55207347	    -23.93764777	   -131.11422600	    -10.49964994	     19.79899900	      0.00000000	    -21.60541299	      9.04490890	     -0.92161598	    -27.28547739	     24.78481549	     16.74916275	      0.00000000	    -44.84903277	     -0.31298743	      6.98921929
      4.48333300	     29.86606535	      3.30426414	     12.70531793	     29.42888451	      0.85684183	      0.14385235	     -7.08054787	      5.27829531	    -23.69948197	   -132.91721064	     -5.79384895	     18.22554807	      0.00000000	    -27.76069785	      5.72832819	     -0.98768174	    -33.47464634	     32.23753979	     18.27415943	      0.00000000	    -44.31386426	      1.04664705	      4.70112734
      4.50000000	     29.84825807	      1.76043054	     11.98620382	     29.56742216	      0.85143706	      0.14701767	      1.76705037	      6.67908531	    -21.49708451	   -131.64072940	     -0.48402872	     15.29025321	      0.00000000	    -33.88419668	      2.85720086	     -1.33879722	    -36.38687387	     30.84655465	     17.18753233	      0.00000000	    -43.06443476	      2.15451604	      2.95039795
      4.51666700	     30.44467097	     -0.47833703	      7.75821520	     29.71037250	      0.85389374	      0.15397459	      9.91617089	      9.26640957	    -15.22825906	   -125.81952278	      7.09049129	      7.20877707	      0.00000000	    -42.16911775	      1.32677823	     -5.87217796	    -31.60734583	     15.10717575	     15.02316476	      0.00000000	    -42.04026717	      2.38343146	      0.96143139
      4.53333300	     30.54026647	     -3.70609613	      1.25616742	     29.85411933	      0.85957824	      0.16375524	     17.57206210	     13.79278053	     -6.29511683	   -115.45396185	      5.63283549	     -3.92646194	      0.00000000	    -50.80182378	      1.01182540	    -15.64417180	    -24.05370904	     -9.62395439	     22.95661948	      0.00000000	    -40.44558732	      2.70044901	     -0.32695131
      4.55000000	     30.03425467	     -6.09992640	     -3.62165809	     29.99248103	      0.86344454	      0.17080021	     22.22058764	     17.25926973	      0.30509477	   -102.52830332	      0.09999981	     -8.85940992	      0.00000000	    -55.81139364	      1.85900903	    -21.62166059	    -23.34400355	    -31.07203061	     32.71833355	      0.00000000	    -39.43738612	      3.30645027	     -2.16322109
      4.56666700	     29.44755389	     -7.18982002	     -5.97549525	     30.12416648	      0.86706135	      0.17430530	     22.73117131	     18.43196676	      3.45085029	    -86.31944755	      1.99266778	     -7.00709806	      0.00000000	    -55.13634880	      2.80984268	    -18.86806402	    -34.82548159	    -38.38507823	     38.37876835	      0.00000000	    -39.52139566	      3.74578734	     -3.34028908
      4.58333300	     29.34107644	     -8.28561139	     -6.95831419	     30.24947743	      0.86999602	      0.17663238	     19.63304111	     19.04217992	      4.10071902	    -66.76197288	      5.44158756	     -3.10483745	      0.00000000	    -51.81948105	      3.00516025	    -15.54555863	    -53.22407158	    -42.84382928	     45.37001565	      0.00000000	    -40.99211409	      4.44817223	     -3.96634499
      4.60000000	     28.53139863	     -8.50143066	     -8.22371641	     30.37641749	      0.87096833	      0.17903155	     15.48688581	     18.92057171	      4.60897321	    -49.75205832	      2.81928622	     -1.04347187	      0.00000000	    -47.49500211	      3.30623428	    -14.54886011	    -70.41637673	    -45.07413835	     47.08781427	      0.00000000	    -41.50876443	      4.46827842	     -4.26526330
      4.61666700	     28.22701742	     -8.41318635	     -9.33834760	     30.50546835	      0.87163183	      0.17937840	      8.64998166	     18.66211219	      6.04703563	    -35.85799366	     -2.18939061	     -3.92907628	      0.00000000	    -43.73113756	      2.88728029	    -15.82042124	    -85.34762652	    -43.22492797	     44.68022782	      0.00000000	    -42.34872092	      4.50705751	     -3.54653213
      4.63333300	     28.51915910	     -8.31185195	    -10.46812005	     30.63548220	      0.87181898	      0.17874539	     -0.62712718	     17.81159248	      7.30668417	    -23.76887108	     -4.30494949	     -6.02265444	      0.00000000	    -40.09698404	      2.16335327	    -18.34232246	    -99.64844088	    -38.61177797	     38.65102584	      0.00000000	    -43.76353232	      4.63549280	     -2.41786147
      4.65000000	     29.12404391	     -7.91451561	    -10.93459173	     30.76569208	      0.87001777	      0.17890777	     -9.99435102	     16.35938272	      6.27457069	    -15.64907987	     -0.99023569	     -5.33500691	      0.00000000	    -35.81899734	      0.87226682	    -20.32008544	   -112.69377332	    -32.94648287	     29.84017519	      0.00000000	    -44.98265239	      4.56139565	     -1.30422537
      4.66666700	     28.79829720	     -7.09228749	    -12.13990718	     30.89604859	      0.86490820	      0.18086411	    -16.90471035	     14.59951685	      6.08214108	    -15.86866316	     11.10014463	     -3.33223413	      0.00000000	    -28.97125241	     -0.57684977	    -22.22064535	   -124.65046766	    -27.75977021	     24.04833260	      0.00000000	    -44.55439558	      3.97047730	      0.27548927
      4.68333300	     28.52883718	     -6.12322705	    -13.04959147	     31.02632503	      0.85711209	      0.18413869	    -22.99839814	     12.61878915	      6.02635318	    -21.79074181	     24.71489049	     -3.54142015	      0.00000000	    -20.56551479	     -2.43433973	    -23.32036705	   -135.10117208	    -22.07895234	     20.83464193	      0.00000000	    -43.62789690	      3.19113343	      2.71703105
      4.70000000	     27.42919246	     -4.65544918	    -12.82282174	     31.15679066	      0.85052998	      0.18489134	    -27.97946076	     10.13727430	      4.70032242	    -26.06968203	     30.70594523	     -4.46271184	      0.00000000	     -9.96799820	     -3.42399947	    -21.90062167	   -141.39283367	    -14.91385437	     23.23281094	      0.00000000	    -41.90542063	      2.60011626	      3.97653676
      4.71666700	     25.87639974	     -2.89299046	    -11.52420746	     31.28704583	      0.84637697	      0.18277563	    -32.78193580	      6.92357894	      1.35784195	    -26.33681579	     27.25264090	     -3.81693246	      0.00000000	      2.39270972	     -2.03659635	    -18.06118606	   -141.71162759	     -5.61514477	     28.94376251	      0.00000000	    -39.68963599	      1.92268302	      5.27995590
      4.73333300	     24.79991855	     -1.23228950	     -9.31672334	     31.41816257	      0.84409283	      0.17968826	    -38.43797067	      4.14462002	     -3.02068218	    -25.47007775	     19.28448818	     -0.24590016	      0.00000000	     14.65978362	      0.87197359	    -13.37940504	   -136.84020555	     -0.98589581	     29.55688388	      0.00000000	    -38.08012992	      1.27444066	      5.93014141
      4.75000000	     24.39549643	      0.05118407	     -6.75578495	     31.55167575	      0.84253879	      0.17686006	    -43.83934562	      3.18593938	     -5.28490227	    -26.14309262	      9.98159106	      2.74197161	      0.00000000	     24.03137962	      3.49215865	     -9.48752646	   -128.64530892	      0.41700557	     26.40169233	      0.00000000	    -37.02394045	      0.82389087	      7.17560516
      4.76666700	     24.06983331	      2.55484171	     -2.89838288	     31.68696044	      0.84590876	      0.17171822	    -46.82431155	      3.62166935	     -5.90985400	    -28.93096417	     -6.85582934	     -1.18659513	      0.00000000	     30.77609605	      6.59825923	     -6.50331883	   -115.23643492	      3.41912598	     17.43029753	      0.00000000	    -36.16032594	      0.08617250	      8.47446069
      4.78333300	     24.13639196	      5.25263640	      1.89014513	     31.82332050	      0.85191939	      0.16457756	    -48.45099514	      5.38359983	     -6.11554901	    -34.81125410	    -22.85250106	      0.45201929	      0.00000000	     34.78983963	     10.31300560	     -2.18961467	    -98.91121885	      5.71634757	      7.72838800	      0.00000000	    -36.01428107	     -0.58227572	      9.49259764
      4.80000000	     24.00827487	      7.23281493	      5.79630522	     31.95607789	      0.85922126	      0.16061778	    -48.25691347	      6.70960797	     -7.76463105	    -43.54337175	    -32.59176209	      9.10679383	      0.00000000	     35.47818884	     13.63551759	      1.63717290	    -82.82604611	      7.86722297	      4.05905470	      0.00000000	    -36.53017872	     -1.22499649	      9.91844938
